<svg viewBox="0 0 564.67 440.24" xmlns="http://www.w3.org/2000/svg"><g fill="#252525"><path d="m340.96 387.17v-334.1l-20.11-13.64v361.38z"/><path d="m440.5 319.68v-199.12l-13.41-9.09v217.3z"/><path d="m392.41 352.29v-264.34l-16.76-11.36v287.06z"/><path d="m526.63 261.28v-82.32l-6.7-4.54v91.4z"/><path d="m286.16 424.33v-82.13-244.16-82.13l-23.46-15.91v98.04 244.16 98.04z"/><path d="m564.67 235.48v-30.72l-3.35-2.28v35.27z"/><path d="m485.24 289.34v-138.44l-10.05-6.82v152.08z"/><path d="m161.73 98.04h16.76v244.16h-16.76z"/><path d="m210.54 98.04h20.11v244.16h-20.11z"/><path d="m35.4 98.04h6.7v244.16h-6.7z"/><path d="m0 98.04h3.35v244.16h-3.35z"/><path d="m74.16 98.04h10.05v244.16h-10.05z"/><path d="m116.27 98.04h13.41v244.16h-13.41z"/></g></svg>