<svg xmlns="http://www.w3.org/2000/svg" viewBox="0 0 448.33 448.33" aria-hidden="true" role="img">
  <!-- Simplified external logo file (extracted from inline SVG).
       Edit this file to change the logo shape or colour. -->
  <g fill="#000">
    <path d="M185.81,110.4L151.72,11.97c-9.06,3.09-17.87,6.75-26.37,10.93l45.49,93.71c4.82-2.39,9.81-4.48,14.97-6.22Z"/>
    <path d="M224.16,104.14c2.87,0,5.71.11,8.53.31L239.18.5c-4.96-.33-9.97-.5-15.02-.5s-10.05.17-15.02.5l6.49,103.94c2.82-.2,5.66-.31,8.53-.31Z"/>
    <path d="M115.98,172.11L21.81,127.6c-3.37,7.06-6.39,14.31-9.02,21.75l98.08,35.12c1.48-4.23,3.19-8.36,5.12-12.36Z"/>
    <path d="M104.14,224.16c0-2.1.05-4.19.16-6.26L.27,213.14c-.18,3.65-.27,7.33-.27,11.02s.09,7.37.27,11.02l104.03-4.76c-.11-2.07-.16-4.16-.16-6.26Z"/>
    <path d="M278.12,116.93l45.98-93.47c-9.21-4.6-18.79-8.58-28.67-11.89l-33.59,98.61c5.62,1.86,11.06,4.12,16.28,6.75Z"/>
    <path d="M338.5,187.57l98.89-32.77c-3.64-11.2-8.14-22-13.41-32.35l-93.09,46.75c3.02,5.86,5.58,12,7.61,18.37Z"/>
    <path d="M315.4,146.18l78.51-68.42c-7.2-8.34-15.01-16.15-23.35-23.35l-68.42,78.51c4.76,4.07,9.19,8.5,13.26,13.26Z"/>
    <path d="M144.9,134.04L75.5,56.38c-6.75,5.99-13.14,12.37-19.12,19.12l77.66,69.4c3.39-3.85,7.01-7.47,10.86-10.86Z"/>
    <path d="M266.26,336.59l36.94,97.4c4.55-1.71,9.03-3.57,13.43-5.57l-42.75-94.99c-2.5,1.14-5.04,2.19-7.63,3.16Z"/>
    <path d="M306.26,311.72c32.45,34.01,63.95,66.85,71.82,75.41,3.13-2.96,6.18-6,9.13-9.14l-75.6-71.62c-1.73,1.84-3.51,3.62-5.35,5.34Z"/>
    <path d="M333.78,273.11c43.15,18.87,84.95,37.05,95.4,41.83,1.47-3.32,2.87-6.69,4.18-10.1l-97.13-37.65c-.77,2-1.58,3.97-2.45,5.92Z"/>
    <path d="M448.28,219.65l-104.12,1.95c.02.85.03,1.71.03,2.56s-.01,1.79-.03,2.68c47.04.76,92.58,1.4,104.12,1.75.03-1.47.05-2.95.05-4.43s-.02-3.01-.05-4.51Z"/>
    <path d="M173.66,333.07l-43.34,94.72c5.29,2.44,10.7,4.69,16.21,6.72l36.33-97.62c-3.13-1.15-6.2-2.43-9.2-3.83Z"/>
    <path d="M135.56,305.12l-76.49,70.67c4.3,4.68,8.79,9.17,13.47,13.47l70.67-76.49c-2.66-2.43-5.21-4.99-7.65-7.65Z"/>
    <path d="M224.16,344.19c-1.53,0-3.04-.04-4.56-.09l-3.47,104.09c2.66.09,5.34.14,8.02.14s5.36-.05,8.02-.14l-3.47-104.09c-1.51.06-3.03.09-4.56.09Z"/>
    <path d="M111.15,264.66l-97.85,35.73c2.34,6.47,4.97,12.8,7.87,18.98l94.45-43.93c-1.66-3.5-3.15-7.1-4.47-10.78Z"/>
  </g>
</svg>
